ffmpeg version 3.4.8-0ubuntu0.2 Copyright (c) 2000-2020 the FFmpeg developers
  built with gcc 7 (Ubuntu 7.5.0-3ubuntu1~18.04)
  configuration: --prefix=/usr --extra-version=0ubuntu0.2 --toolchain=hardened --libdir=/usr/lib/x86_64-linux-gnu --incdir=/usr/include/x86_64-linux-gnu --enable-gpl --disable-stripping --enable-avresample --enable-avisynth --enable-gnutls --enable-ladspa --enable-libass --enable-libbluray --enable-libbs2b --enable-libcaca --enable-libcdio --enable-libflite --enable-libfontconfig --enable-libfreetype --enable-libfribidi --enable-libgme --enable-libgsm --enable-libmp3lame --enable-libmysofa --enable-libopenjpeg --enable-libopenmpt --enable-libopus --enable-libpulse --enable-librubberband --enable-librsvg --enable-libshine --enable-libsnappy --enable-libsoxr --enable-libspeex --enable-libssh --enable-libtheora --enable-libtwolame --enable-libvorbis --enable-libvpx --enable-libwavpack --enable-libwebp --enable-libx265 --enable-libxml2 --enable-libxvid --enable-libzmq --enable-libzvbi --enable-omx --enable-openal --enable-opengl --enable-sdl2 --enable-libdc1394 --enable-libdrm --enable-libiec61883 --enable-chromaprint --enable-frei0r --enable-libopencv --enable-libx264 --enable-shared
  libavutil      55. 78.100 / 55. 78.100
  libavcodec     57.107.100 / 57.107.100
  libavformat    57. 83.100 / 57. 83.100
  libavdevice    57. 10.100 / 57. 10.100
  libavfilter     6.107.100 /  6.107.100
  libavresample   3.  7.  0 /  3.  7.  0
  libswscale      4.  8.100 /  4.  8.100
  libswresample   2.  9.100 /  2.  9.100
  libpostproc    54.  7.100 / 54.  7.100
[rawvideo @ 0x55886ea12a20] Estimating duration from bitrate, this may be inaccurate
Input #0, rawvideo, from '../../SVC-Encoder-20220109T061506Z-001/SVC-Encoder/Dataset/RollerCoaster/ERP_8x8/tile_yuv/Tile_59_480x240.yuv':
  Duration: 00:00:10.00, start: 0.000000, bitrate: 41472 kb/s
    Stream #0:0: Video: rawvideo (I420 / 0x30323449), yuv420p, 480x240, 41472 kb/s, 30 tbr, 30 tbn, 30 tbc
Stream mapping:
  Stream #0:0 -> #0:0 (rawvideo (native) -> h264 (libx264))
Press [q] to stop, [?] for help
[libx264 @ 0x55886ea1fc60] using cpu capabilities: MMX2 SSE2Fast LZCNT SSSE3 SSE4.2 AVX
[libx264 @ 0x55886ea1fc60] profile High, level 2.1
Output #0, rawvideo, to 'RollerCoaster_Tile_59_480x240_x264_QP_32.h264':
  Metadata:
    encoder         : Lavf57.83.100
    Stream #0:0: Video: h264 (libx264), yuv420p, 480x240, q=-1--1, 30 fps, 30 tbn, 30 tbc
    Metadata:
      encoder         : Lavc57.107.100 libx264
    Side data:
      cpb: bitrate max/min/avg: 0/0/0 buffer size: 0 vbv_delay: -1
frame=  245 fps=0.0 q=38.0 PSNR=Y:nan U:nan V:nan *:nan size=      38kB time=00:00:06.73 bitrate=  46.4kbits/s speed=13.4x    frame=  300 fps=0.0 q=38.0 LPSNR=Y:inf U:inf V:inf *:inf size=      57kB time=00:00:09.93 bitrate=  47.1kbits/s speed=  15x    
video:57kB audio:0kB subtitle:0kB other streams:0kB global headers:0kB muxing overhead: 0.000000%
[libx264 @ 0x55886ea1fc60] frame I:2     Avg QP:30.04  size:  3854  PSNR Mean Y:43.14 U:48.39 V:42.04 Avg:43.45 Global:43.45
[libx264 @ 0x55886ea1fc60] frame P:77    Avg QP:31.23  size:   322  PSNR Mean Y:42.57 U:47.33 V:42.96 Avg:43.14 Global:43.11
[libx264 @ 0x55886ea1fc60] frame B:221   Avg QP:37.44  size:   118  PSNR Mean Y:42.42 U:47.34 V:42.98 Avg:43.03 Global:43.01
[libx264 @ 0x55886ea1fc60] consecutive B-frames:  0.7%  2.7%  2.0% 94.7%
[libx264 @ 0x55886ea1fc60] mb I  I16..4: 15.9% 58.9% 25.2%
[libx264 @ 0x55886ea1fc60] mb P  I16..4:  0.9%  0.5%  0.0%  P16..4: 26.3%  4.1%  0.2%  0.0%  0.0%    skip:68.0%
[libx264 @ 0x55886ea1fc60] mb B  I16..4:  0.0%  0.0%  0.0%  B16..8: 21.9%  0.6%  0.0%  direct: 0.0%  skip:77.5%  L0:49.0% L1:50.8% BI: 0.3%
[libx264 @ 0x55886ea1fc60] 8x8 transform intra:49.3% inter:92.7%
[libx264 @ 0x55886ea1fc60] coded y,uvDC,uvAC intra: 19.2% 35.0% 21.5% inter: 0.6% 1.0% 0.0%
[libx264 @ 0x55886ea1fc60] i16 v,h,dc,p: 18% 71%  9%  3%
[libx264 @ 0x55886ea1fc60] i8 v,h,dc,ddl,ddr,vr,hd,vl,hu:  5% 38% 50%  1%  1%  0%  1%  1%  4%
[libx264 @ 0x55886ea1fc60] i4 v,h,dc,ddl,ddr,vr,hd,vl,hu:  6% 68% 12%  1%  1%  0%  4%  0%  8%
[libx264 @ 0x55886ea1fc60] i8c dc,h,v,p: 47% 46%  3%  3%
[libx264 @ 0x55886ea1fc60] Weighted P-Frames: Y:1.3% UV:0.0%
[libx264 @ 0x55886ea1fc60] ref P L0: 53.7% 11.3% 26.3%  8.6%  0.1%
[libx264 @ 0x55886ea1fc60] ref B L0: 64.6% 27.8%  7.6%
[libx264 @ 0x55886ea1fc60] ref B L1: 79.7% 20.3%
[libx264 @ 0x55886ea1fc60] PSNR Mean Y:42.460 U:47.348 V:42.971 Avg:43.062 Global:43.040 kb/s:46.82
